<?xml version="1.0" encoding="UTF-8"?>
<svg version="1.1" xmlns="http://www.w3.org/2000/svg" width="200" height="150">
<path d="M0 0 C66 0 132 0 200 0 C200 49.5 200 99 200 150 C134 150 68 150 0 150 C0 100.5 0 51 0 0 Z " fill="#FEFEFE" transform="translate(0,0)"/>
<path d="M0 0 C3.09609064 0.34902879 6.18345507 0.56225069 9.29296875 0.75390625 C12 1 12 1 15 2 C15 7.61 15 13.22 15 19 C20.94 19 26.88 19 33 19 C33.05381797 22.93768134 33.0935868 26.87463132 33.125 30.8125 C33.14175781 31.93205078 33.15851563 33.05160156 33.17578125 34.20507812 C33.18544922 35.81479492 33.18544922 35.81479492 33.1953125 37.45703125 C33.21102295 38.9416687 33.21102295 38.9416687 33.22705078 40.45629883 C33 43 33 43 31 46 C28.2114711 46.22107787 25.65346819 46.28107535 22.875 46.1875 C21.74384766 46.16719727 21.74384766 46.16719727 20.58984375 46.14648438 C18.72625873 46.11109985 16.86304022 46.05729167 15 46 C15.02320313 47.20398438 15.04640625 48.40796875 15.0703125 49.6484375 C15.08906863 51.22395215 15.10726899 52.79947348 15.125 54.375 C15.14175781 55.1690625 15.15851562 55.963125 15.17578125 56.78125 C15.19335473 58.85492015 15.10335168 60.92883241 15 63 C13 65 13 65 11.06054688 65.24291992 C10.28775391 65.23881104 9.51496094 65.23470215 8.71875 65.23046875 C7.45611328 65.22756836 7.45611328 65.22756836 6.16796875 65.22460938 C5.28753906 65.21236328 4.40710937 65.20011719 3.5 65.1875 C2.61957031 65.18685547 1.73914063 65.18621094 0.83203125 65.18554688 C-5.71919885 65.14040057 -5.71919885 65.14040057 -8 64 C-8 58.06 -8 52.12 -8 46 C-14.27 46 -20.54 46 -27 46 C-28.37869851 35.88954426 -28.5924786 25.67769745 -25 16 C-19.49226442 14.87341772 -19.49226442 14.87341772 -16.8125 15.5625 C-16.214375 15.706875 -15.61625 15.85125 -15 16 C-14.01 15.34 -13.02 14.68 -12 14 C-11.6190791 10.67358611 -11.62399876 7.4131489 -11.6015625 4.06640625 C-11 1 -11 1 -8.62109375 -0.95703125 C-5.01295759 -2.39275756 -3.64272042 -1.32462561 0 0 Z " fill="#EEFCE0" transform="translate(46,39)"/>
<path d="M0 0 C1.44848582 0.08342159 2.90070869 0.10732861 4.3515625 0.09765625 C5.62773438 0.09282227 5.62773438 0.09282227 6.9296875 0.08789062 C7.81914063 0.07951172 8.70859375 0.07113281 9.625 0.0625 C10.97078125 0.05573242 10.97078125 0.05573242 12.34375 0.04882812 C14.56256648 0.03702591 16.78125018 0.02056155 19 0 C19 1.65 19 3.3 19 5 C15.7 5 12.4 5 9 5 C9 5.66 9 6.32 9 7 C14.94 6.505 14.94 6.505 21 6 C21 4.02 21 2.04 21 0 C23.64 0 26.28 0 29 0 C32 6.5 32 6.5 32 11 C32.66 11 33.32 11 34 11 C34.185625 9.948125 34.185625 9.948125 34.375 8.875 C35.03035014 5.86038936 36.02443037 2.9267089 37 0 C45.91 0 54.82 0 64 0 C64 1.65 64 3.3 64 5 C60.37 5 56.74 5 53 5 C53 5.99 53 6.98 53 8 C56.3 8 59.6 8 63 8 C63 9.65 63 11.3 63 13 C63.66 13 64.32 13 65 13 C65.495 6.565 65.495 6.565 66 0 C67.98 0 69.96 0 72 0 C72 4.95 72 9.9 72 15 C74.97 15 77.94 15 81 15 C80.95875 15.94875 80.9175 16.8975 80.875 17.875 C80.65026182 21.10244856 80.65026182 21.10244856 83 23 C82.34 24.32 81.68 25.64 81 27 C73 27 65 27 57 27 C53.02010436 27.53065275 49.70597871 28.4975762 46 30 C43 30 40 30 37 30 C37.495 28.515 37.495 28.515 38 27 C36.10353002 27.11493757 34.20781668 27.24239642 32.3125 27.375 C31.25675781 27.44460937 30.20101562 27.51421875 29.11328125 27.5859375 C26.08965781 27.98807562 23.80364122 28.85995043 21 30 C18.875 29.1875 18.875 29.1875 17 28 C13.85617176 26.95205725 12.12796561 26.99479053 8.875 27.3125 C7.98554687 27.39113281 7.09609375 27.46976563 6.1796875 27.55078125 C5.10074219 27.77314453 5.10074219 27.77314453 4 28 C3.67 28.66 3.34 29.32 3 30 C3 29.34 3 28.68 3 28 C2.38511719 28.0721875 1.77023438 28.144375 1.13671875 28.21875 C0.32847656 28.3115625 -0.47976562 28.404375 -1.3125 28.5 C-2.11300781 28.5928125 -2.91351563 28.685625 -3.73828125 28.78125 C-6 29 -6 29 -9 29 C-9.66 28.34 -10.32 27.68 -11 27 C-13.68839385 26.73008094 -16.29141936 26.91262643 -19 27 C-19 25.68 -19 24.36 -19 23 C-18.08476563 23.01160156 -17.16953125 23.02320312 -16.2265625 23.03515625 C-15.03804688 23.04417969 -13.84953125 23.05320312 -12.625 23.0625 C-11.44164063 23.07410156 -10.25828125 23.08570312 -9.0390625 23.09765625 C-6.08078479 23.21466593 -6.08078479 23.21466593 -4 22 C-5.13888672 21.83564453 -5.13888672 21.83564453 -6.30078125 21.66796875 C-7.29464844 21.50941406 -8.28851563 21.35085937 -9.3125 21.1875 C-10.29863281 21.03667969 -11.28476563 20.88585937 -12.30078125 20.73046875 C-15.17446928 19.95278472 -16.33081494 19.44396038 -18 17 C-18 15.68 -18 14.36 -18 13 C-15.625 12.875 -15.625 12.875 -13 13 C-12.34 13.66 -11.68 14.32 -11 15 C-9.01178687 15.39764263 -7.01055661 15.73775349 -5 16 C-5 15.01 -5 14.02 -5 13 C-6.03060547 12.83564453 -6.03060547 12.83564453 -7.08203125 12.66796875 C-7.98308594 12.50941406 -8.88414063 12.35085937 -9.8125 12.1875 C-10.70582031 12.03667969 -11.59914063 11.88585937 -12.51953125 11.73046875 C-15.21893811 10.93552531 -16.31453201 10.22350012 -18 8 C-18.41473546 5.23509696 -18.49764597 3.71940401 -16.88671875 1.390625 C-14.14892396 -0.62729414 -11.80005598 -0.55463362 -8.4375 -0.75 C-6.70306641 -0.86601563 -6.70306641 -0.86601563 -4.93359375 -0.984375 C-2 -1 -2 -1 0 0 Z " fill="#E7F4E9" transform="translate(103,58)"/>
<path d="M0 0 C4.95 0 9.9 0 15 0 C15 5.61 15 11.22 15 17 C20.94 17 26.88 17 33 17 C33.05381797 20.93768134 33.0935868 24.87463132 33.125 28.8125 C33.14175781 29.93205078 33.15851563 31.05160156 33.17578125 32.20507812 C33.18544922 33.81479492 33.18544922 33.81479492 33.1953125 35.45703125 C33.21102295 36.9416687 33.21102295 36.9416687 33.22705078 38.45629883 C33 41 33 41 31 44 C28.2114711 44.22107787 25.65346819 44.28107535 22.875 44.1875 C21.74384766 44.16719727 21.74384766 44.16719727 20.58984375 44.14648438 C18.72625873 44.11109985 16.86304022 44.05729167 15 44 C15.02320313 45.20398438 15.04640625 46.40796875 15.0703125 47.6484375 C15.08906863 49.22395215 15.10726899 50.79947348 15.125 52.375 C15.15013672 53.56609375 15.15013672 53.56609375 15.17578125 54.78125 C15.19335473 56.85492015 15.10335168 58.92883241 15 61 C14.34 61.66 13.68 62.32 13 63 C10.27148177 62.81809878 9.03082306 62.02468415 6.89160156 60.31152344 C4.49290274 57.38033081 4.53291072 55.88737486 4.609375 52.140625 C4.62226562 51.02558594 4.63515625 49.91054687 4.6484375 48.76171875 C4.68195312 47.60285156 4.71546875 46.44398437 4.75 45.25 C4.76804687 44.07566406 4.78609375 42.90132812 4.8046875 41.69140625 C4.8518088 38.7934466 4.91758695 35.89713582 5 33 C5.61520508 32.97494385 6.23041016 32.9498877 6.86425781 32.92407227 C9.65970156 32.80781513 12.45483298 32.68522358 15.25 32.5625 C16.21808594 32.52318359 17.18617187 32.48386719 18.18359375 32.44335938 C19.11816406 32.40146484 20.05273438 32.35957031 21.015625 32.31640625 C21.87446289 32.27974854 22.73330078 32.24309082 23.61816406 32.20532227 C25.84960143 32.01296486 27.84982524 31.61153756 30 31 C30 30.34 30 29.68 30 29 C21.75 29 13.5 29 5 29 C4.75 18.4375 4.75 18.4375 4.70214844 15.15014648 C4.48542439 8.95012776 3.57604099 5.09943446 0 0 Z " fill="#7BC03F" transform="translate(46,41)"/>
<path d="M0 0 C5.28 0 10.56 0 16 0 C16 1.65 16 3.3 16 5 C12.37 5 8.74 5 5 5 C5 5.99 5 6.98 5 8 C8.3 8 11.6 8 15 8 C15 9.65 15 11.3 15 13 C15.66 13 16.32 13 17 13 C17.495 6.565 17.495 6.565 18 0 C19.98 0 21.96 0 24 0 C24 4.95 24 9.9 24 15 C26.97 15 29.94 15 33 15 C32.95875 15.94875 32.9175 16.8975 32.875 17.875 C32.65026182 21.10244856 32.65026182 21.10244856 35 23 C34.34 24.32 33.68 25.64 33 27 C25 27 17 27 9 27 C5.02010436 27.53065275 1.70597871 28.4975762 -2 30 C-5 30 -8 30 -11 30 C-10.67 29.01 -10.34 28.02 -10 27 C-13.3 27 -16.6 27 -20 27 C-19.67 25.68 -19.34 24.36 -19 23 C-16.62492145 22.97280444 -14.25016036 22.95306753 -11.875 22.9375 C-11.20984375 22.92912109 -10.5446875 22.92074219 -9.859375 22.91210938 C-5.78519047 22.89213788 -2.00368812 23.29138263 2 24 C4.18703385 23.62092718 4.18703385 23.62092718 6 23 C6.66 23 7.32 23 8 23 C8 22.34 8 21.68 8 21 C5.36 21 2.72 21 0 21 C0 14.07 0 7.14 0 0 Z " fill="#E0EEE6" transform="translate(151,58)"/>
<path d="M0 0 C1.98 0 3.96 0 6 0 C8.97089809 3.42639674 9.36412229 6.30304414 9.29296875 10.73828125 C9.28330078 11.80498047 9.27363281 12.87167969 9.26367188 13.97070312 C9.23853516 15.07349609 9.21339844 16.17628906 9.1875 17.3125 C9.16719727 18.99569336 9.16719727 18.99569336 9.14648438 20.71289062 C9.1112138 23.47575229 9.06192235 26.23762829 9 29 C7.85402344 29.04898438 6.70804688 29.09796875 5.52734375 29.1484375 C3.99737465 29.22352801 2.46742782 29.29907306 0.9375 29.375 C-0.19075195 29.42140625 -0.19075195 29.42140625 -1.34179688 29.46875 C-6.18353001 29.7202686 -10.42607667 30.34961529 -15 32 C-16.49743888 33.98567734 -16.49743888 33.98567734 -17 36 C-17.33 36 -17.66 36 -18 36 C-18 29.73 -18 23.46 -18 17 C-12.06 17 -6.12 17 0 17 C0 11.39 0 5.78 0 0 Z " fill="#83B758" transform="translate(38,41)"/>
<path d="M0 0 C0.05410687 1.77049689 0.09284119 3.54146849 0.125 5.3125 C0.14820312 6.29863281 0.17140625 7.28476563 0.1953125 8.30078125 C0 11 0 11 -2 14 C-4.7885289 14.22107787 -7.34653181 14.28107535 -10.125 14.1875 C-10.87910156 14.17396484 -11.63320312 14.16042969 -12.41015625 14.14648438 C-14.27374127 14.11109985 -16.13695978 14.05729167 -18 14 C-17.97679687 15.20398438 -17.95359375 16.40796875 -17.9296875 17.6484375 C-17.91093137 19.22395215 -17.89273101 20.79947348 -17.875 22.375 C-17.84986328 23.56609375 -17.84986328 23.56609375 -17.82421875 24.78125 C-17.80664527 26.85492015 -17.89664832 28.92883241 -18 31 C-18.66 31.66 -19.32 32.32 -20 33 C-22.72851823 32.81809878 -23.96917694 32.02468415 -26.10839844 30.31152344 C-28.50709726 27.38033081 -28.46708928 25.88737486 -28.390625 22.140625 C-28.37773438 21.02558594 -28.36484375 19.91054687 -28.3515625 18.76171875 C-28.31804688 17.60285156 -28.28453125 16.44398437 -28.25 15.25 C-28.23195312 14.07566406 -28.21390625 12.90132812 -28.1953125 11.69140625 C-28.1481912 8.7934466 -28.08241305 5.89713582 -28 3 C-27.39003174 2.98018066 -26.78006348 2.96036133 -26.15161133 2.93994141 C-23.37149467 2.84432124 -20.59209154 2.73479295 -17.8125 2.625 C-16.37293945 2.57859375 -16.37293945 2.57859375 -14.90429688 2.53125 C-13.97294922 2.49257812 -13.04160156 2.45390625 -12.08203125 2.4140625 C-10.80162964 2.36693115 -10.80162964 2.36693115 -9.49536133 2.31884766 C-6.13732465 1.88977067 -3.34537068 0 0 0 Z " fill="#0C2E14" transform="translate(79,71)"/>
<path d="M0 0 C0.97453125 0.02255859 1.9490625 0.04511719 2.953125 0.06835938 C5.34535515 0.12699247 7.7343615 0.20898847 10.125 0.3125 C10.12387207 0.93705078 10.12274414 1.56160156 10.12158203 2.20507812 C10.13379789 5.0752748 10.19158547 7.94288642 10.25 10.8125 C10.24742188 11.79476562 10.24484375 12.77703125 10.2421875 13.7890625 C10.4345613 21.00307987 12.14118774 25.07997177 17.125 30.3125 C14.83339681 30.33942484 12.54170454 30.35886124 10.25 30.375 C8.97382812 30.38660156 7.69765625 30.39820312 6.3828125 30.41015625 C3.125 30.3125 3.125 30.3125 1.125 29.3125 C1.125 23.3725 1.125 17.4325 1.125 11.3125 C-4.42473121 11.35207481 -4.42473121 11.35207481 -9.97436523 11.40258789 C-11.94145974 11.40973091 -13.90853621 11.36281893 -15.875 11.3125 C-16.875 10.3125 -16.875 10.3125 -17.3125 8.0625 C-16.78139417 4.72412049 -15.48957483 3.42395833 -12.87817383 1.35107422 C-8.84739355 -0.73874166 -4.42581814 -0.19490392 0 0 Z " fill="#0F2D13" transform="translate(36.875,73.6875)"/>
<path d="M0 0 C2.31 0 4.62 0 7 0 C10 6.5 10 6.5 10 11 C10.66 11 11.32 11 12 11 C12.12375 10.29875 12.2475 9.5975 12.375 8.875 C13.03838345 5.82343613 13.97211955 2.94659062 15 0 C17.64 0 20.28 0 23 0 C23 6.6 23 13.2 23 20 C21.02 20 19.04 20 17 20 C16.67 17.36 16.34 14.72 16 12 C15.01 14.64 14.02 17.28 13 20 C11.68 20 10.36 20 9 20 C8.01 17.36 7.02 14.72 6 12 C5.67 14.64 5.34 17.28 5 20 C3.35 20 1.7 20 0 20 C0 13.4 0 6.8 0 0 Z " fill="#1E3B25" transform="translate(125,58)"/>
<path d="M0 0 C0.94746094 -0.00773437 1.89492187 -0.01546875 2.87109375 -0.0234375 C5.98555143 0.4376288 7.39002014 1.10493831 9.5625 3.375 C9.5625 4.695 9.5625 6.015 9.5625 7.375 C7.1875 7.5 7.1875 7.5 4.5625 7.375 C3.9025 6.715 3.2425 6.055 2.5625 5.375 C-0.00811311 4.72732207 -0.00811311 4.72732207 -2.4375 4.375 C-2.4375 5.365 -2.4375 6.355 -2.4375 7.375 C-1.83421875 7.48457031 -1.2309375 7.59414062 -0.609375 7.70703125 C8.04938089 9.42481669 8.04938089 9.42481669 10.5625 12.375 C11.1875 14.8125 11.1875 14.8125 10.5625 17.375 C7.88005122 20.05744878 5.88068645 21.3075579 2.04296875 21.50390625 C-4.53323214 21.03211438 -4.53323214 21.03211438 -7.23828125 19.06640625 C-8.4375 17.375 -8.4375 17.375 -8.4375 13.375 C-6.0625 13.25 -6.0625 13.25 -3.4375 13.375 C-2.7775 14.035 -2.1175 14.695 -1.4375 15.375 C0.55071313 15.77264263 2.55194339 16.11275349 4.5625 16.375 C4.5625 15.385 4.5625 14.395 4.5625 13.375 C3.53189453 13.21064453 3.53189453 13.21064453 2.48046875 13.04296875 C1.57941406 12.88441406 0.67835937 12.72585937 -0.25 12.5625 C-1.14332031 12.41167969 -2.03664063 12.26085937 -2.95703125 12.10546875 C-5.65643811 11.31052531 -6.75203201 10.59850012 -8.4375 8.375 C-8.8595224 5.56151735 -8.94581009 4.07623306 -7.25390625 1.7421875 C-4.77256015 -0.12549236 -3.07853491 -0.0250627 0 0 Z " fill="#1C341E" transform="translate(93.4375,57.625)"/>
<path d="M0 0 C4.95 0 9.9 0 15 0 C15 5.61 15 11.22 15 17 C20.94 17 26.88 17 33 17 C33 21.29 33 25.58 33 30 C32.01 30.33 31.02 30.66 30 31 C30 30.34 30 29.68 30 29 C21.75 29 13.5 29 5 29 C4.75 18.4375 4.75 18.4375 4.70214844 15.15014648 C4.48542439 8.95012776 3.57604099 5.09943446 0 0 Z M4 1 C4 2.65 4 4.3 4 6 C4.99 6.495 4.99 6.495 6 7 C6.41064453 9.04125977 6.41064453 9.04125977 6.6328125 11.69140625 C6.71660156 12.63564453 6.80039062 13.57988281 6.88671875 14.55273438 C6.96535156 15.54595703 7.04398438 16.53917969 7.125 17.5625 C7.21136719 18.55958984 7.29773437 19.55667969 7.38671875 20.58398438 C7.59956793 23.05539988 7.80359321 25.52723225 8 28 C8.33 27.34 8.66 26.68 9 26 C10.89685547 26.14308594 10.89685547 26.14308594 12.83203125 26.2890625 C14.49214887 26.40161285 16.15230742 26.51356068 17.8125 26.625 C19.06256836 26.72167969 19.06256836 26.72167969 20.33789062 26.8203125 C21.14033203 26.871875 21.94277344 26.9234375 22.76953125 26.9765625 C23.50792236 27.02893066 24.24631348 27.08129883 25.00708008 27.13525391 C27.32254205 27.14397982 27.32254205 27.14397982 30 25 C29.505 22.525 29.505 22.525 29 20 C27.60974609 20.01740234 27.60974609 20.01740234 26.19140625 20.03515625 C24.99386719 20.04417969 23.79632813 20.05320312 22.5625 20.0625 C21.36753906 20.07410156 20.17257813 20.08570312 18.94140625 20.09765625 C16 20 16 20 15 19 C14.84417697 17.65984779 14.74955858 16.31241097 14.68359375 14.96484375 C14.62075195 13.75151367 14.62075195 13.75151367 14.55664062 12.51367188 C14.51732422 11.66353516 14.47800781 10.81339844 14.4375 9.9375 C14.39431641 9.08349609 14.35113281 8.22949219 14.30664062 7.34960938 C14.20023298 5.23327963 14.09958269 3.11666187 14 1 C10.7 1 7.4 1 4 1 Z " fill="#90B96C" transform="translate(46,41)"/>
<path d="M0 0 C0.33 0.66 0.66 1.32 1 2 C1.99 2.33 2.98 2.66 4 3 C3.34 3.66 2.68 4.32 2 5 C1.83322718 8.58343976 1.83322718 8.58343976 2 12 C7.94 13.485 7.94 13.485 14 15 C14 15.99 14 16.98 14 18 C11.125 18.125 11.125 18.125 8 18 C7.34 17.34 6.68 16.68 6 16 C3.42938689 15.35232207 3.42938689 15.35232207 1 15 C1.87740301 18.03102856 2.34928852 19.61722854 5.125 21.25 C8.75286529 22.19639964 12.26920741 22.62059736 16 23 C14.8984375 24.5 14.8984375 24.5 13 26 C9.70434211 26.20869601 6.52197491 25.99431586 3.2265625 25.8125 C-0.38899592 26.02260509 -2.1622498 26.7893182 -5 29 C-5 29.66 -5 30.32 -5 31 C-6.32 31.33 -7.64 31.66 -9 32 C-9 31.34 -9 30.68 -9 30 C-9.66 29.67 -10.32 29.34 -11 29 C-10.360625 28.87625 -9.72125 28.7525 -9.0625 28.625 C-8.381875 28.41875 -7.70125 28.2125 -7 28 C-5.71394339 25.42788678 -5.78956059 23.43093034 -5.68359375 20.5546875 C-5.64169922 19.47832031 -5.59980469 18.40195313 -5.55664062 17.29296875 C-5.51732422 16.16503906 -5.47800781 15.03710938 -5.4375 13.875 C-5.37272461 12.17150391 -5.37272461 12.17150391 -5.30664062 10.43359375 C-5.2003396 7.62252232 -5.09830595 4.81136055 -5 2 C-3.35 2.33 -1.7 2.66 0 3 C0 2.01 0 1.02 0 0 Z " fill="#ECF4EA" transform="translate(84,56)"/>
<path d="M0 0 C5.28 0 10.56 0 16 0 C16 1.65 16 3.3 16 5 C12.7 5 9.4 5 6 5 C6 5.99 6 6.98 6 8 C8.97 8 11.94 8 15 8 C15 9.32 15 10.64 15 12 C11.7 12 8.4 12 5 12 C5 13.32 5 14.64 5 16 C8.63 16 12.26 16 16 16 C16 17.32 16 18.64 16 20 C10.72 20 5.44 20 0 20 C0 13.4 0 6.8 0 0 Z " fill="#05240A" transform="translate(106,58)"/>
<path d="M0 0 C5.28 0 10.56 0 16 0 C16 1.65 16 3.3 16 5 C12.37 5 8.74 5 5 5 C5 5.99 5 6.98 5 8 C8.3 8 11.6 8 15 8 C15 9.32 15 10.64 15 12 C11.7 12 8.4 12 5 12 C5.33 12.99 5.66 13.98 6 15 C9.3 15.33 12.6 15.66 16 16 C16 17.32 16 18.64 16 20 C10.72 20 5.44 20 0 20 C0 13.4 0 6.8 0 0 Z " fill="#203926" transform="translate(151,58)"/>
<path d="M0 0 C5.28 0 10.56 0 16 0 C14.68 0.33 13.36 0.66 12 1 C12 1.66 12 2.32 12 3 C12.99 3 13.98 3 15 3 C15 3.66 15 4.32 15 5 C15.9075 4.67 16.815 4.34 17.75 4 C22.67560597 2.48442893 27.86745236 3 33 3 C33 4.32 33 5.64 33 7 C25 7 17 7 9 7 C5.02010436 7.53065275 1.70597871 8.4975762 -2 10 C-5 10 -8 10 -11 10 C-10.67 9.01 -10.34 8.02 -10 7 C-13.3 7 -16.6 7 -20 7 C-19.67 5.68 -19.34 4.36 -19 3 C-16.62492145 2.97280444 -14.25016036 2.95306753 -11.875 2.9375 C-10.87726563 2.92493164 -10.87726563 2.92493164 -9.859375 2.91210938 C-5.78519047 2.89213788 -2.00368812 3.29138263 2 4 C4.18703385 3.62092718 4.18703385 3.62092718 6 3 C6.66 3 7.32 3 8 3 C8 2.34 8 1.68 8 1 C5.36 1 2.72 1 0 1 C0 0.67 0 0.34 0 0 Z " fill="#DDE4E1" transform="translate(151,78)"/>
<path d="M0 0 C0.99 0.66 1.98 1.32 3 2 C3.34057617 3.97119141 3.34057617 3.97119141 3.29296875 6.3515625 C3.28330078 7.20234375 3.27363281 8.053125 3.26367188 8.9296875 C3.23853516 9.81914063 3.21339844 10.70859375 3.1875 11.625 C3.16719727 12.97078125 3.16719727 12.97078125 3.14648438 14.34375 C3.11106925 16.56309789 3.06168461 18.78125188 3 21 C2.34 21 1.68 21 1 21 C1 21.66 1 22.32 1 23 C-5.6 23.66 -12.2 24.32 -19 25 C-19 23.35 -19 21.7 -19 20 C-19.33 19.34 -19.66 18.68 -20 18 C-16.43913342 16.81304447 -13.02668976 16.64904582 -9.3125 16.4375 C-8.61060547 16.39431641 -7.90871094 16.35113281 -7.18554688 16.30664062 C-5.45724794 16.2008264 -3.7286489 16.09993419 -2 16 C-1.90912109 14.51886719 -1.90912109 14.51886719 -1.81640625 13.0078125 C-1.73261719 11.72648437 -1.64882813 10.44515625 -1.5625 9.125 C-1.48128906 7.84882812 -1.40007813 6.57265625 -1.31640625 5.2578125 C-1 2 -1 2 0 0 Z " fill="#7CBE3F" transform="translate(41,44)"/>
<path d="M0 0 C0.66 0.33 1.32 0.66 2 1 C1.505 1.61875 1.01 2.2375 0.5 2.875 C-1.19222773 4.83880904 -1.19222773 4.83880904 -1 7 C-0.38253906 6.84402344 0.23492187 6.68804687 0.87109375 6.52734375 C6.20013525 5.30255643 10.60779918 4.89202204 16.015625 5.70703125 C18.35783412 6.05282984 20.63620835 6.07625134 23 6 C23.495 7.485 23.495 7.485 24 9 C19.34771625 10.47749694 14.41812148 10.34403501 9.58007812 10.51757812 C7.71532904 10.60849965 5.85585032 10.79659042 4 11 C3.67 11.66 3.34 12.32 3 13 C3 12.34 3 11.68 3 11 C2.07767578 11.10828125 2.07767578 11.10828125 1.13671875 11.21875 C0.32847656 11.3115625 -0.47976562 11.404375 -1.3125 11.5 C-2.11300781 11.5928125 -2.91351563 11.685625 -3.73828125 11.78125 C-6 12 -6 12 -9 12 C-9.66 11.34 -10.32 10.68 -11 10 C-13.68839385 9.73008094 -16.29141936 9.91262643 -19 10 C-19 8.68 -19 7.36 -19 6 C-18.08476563 6.01160156 -17.16953125 6.02320312 -16.2265625 6.03515625 C-15.03804688 6.04417969 -13.84953125 6.05320312 -12.625 6.0625 C-10.84996094 6.07990234 -10.84996094 6.07990234 -9.0390625 6.09765625 C-6.08078479 6.21466593 -6.08078479 6.21466593 -4 5 C-4.33 4.34 -4.66 3.68 -5 3 C-2.625 1.4375 -2.625 1.4375 0 0 Z " fill="#E3ECE6" transform="translate(103,75)"/>
<path d="M0 0 C0.97453125 0.02255859 1.9490625 0.04511719 2.953125 0.06835938 C5.34535515 0.12699247 7.7343615 0.20898847 10.125 0.3125 C9.795 1.6325 9.465 2.9525 9.125 4.3125 C8.465 4.3125 7.805 4.3125 7.125 4.3125 C7.125 3.6525 7.125 2.9925 7.125 2.3125 C6.135 2.8075 6.135 2.8075 5.125 3.3125 C3.42136178 3.53872081 1.71171299 3.72138473 0 3.875 C-0.91007812 3.95878906 -1.82015625 4.04257813 -2.7578125 4.12890625 C-3.80582031 4.21978516 -3.80582031 4.21978516 -4.875 4.3125 C-4.57035873 6.28221804 -4.57035873 6.28221804 -3.875 8.3125 C-1.38465614 9.60910434 -1.38465614 9.60910434 1.125 10.3125 C1.125 10.6425 1.125 10.9725 1.125 11.3125 C-1.68756281 11.33934312 -4.49987241 11.35926188 -7.3125 11.375 C-8.11494141 11.38337891 -8.91738281 11.39175781 -9.74414062 11.40039062 C-11.78795221 11.4090143 -13.83183902 11.3647815 -15.875 11.3125 C-16.875 10.3125 -16.875 10.3125 -17.3125 8.0625 C-16.78139417 4.72412049 -15.48957483 3.42395833 -12.87817383 1.35107422 C-8.84739355 -0.73874166 -4.42581814 -0.19490392 0 0 Z " fill="#0F321C" transform="translate(36.875,73.6875)"/>
<path d="M0 0 C0 6.93 0 13.86 0 21 C5.61 21 11.22 21 17 21 C17 21.66 17 22.32 17 23 C13.20732808 23.9360342 10.06325435 23.98276252 6.1875 23.5625 C5.21167969 23.46066406 4.23585938 23.35882813 3.23046875 23.25390625 C2.49441406 23.17011719 1.75835937 23.08632812 1 23 C0.67 24.32 0.34 25.64 0 27 C0 25.68 0 24.36 0 23 C-1.32 23.33 -2.64 23.66 -4 24 C-4.33 23.01 -4.66 22.02 -5 21 C-4.484375 20.401875 -3.96875 19.80375 -3.4375 19.1875 C-1.70701114 17.01766465 -1.70701114 17.01766465 -2.125 14 C-5.08917173 9.25732523 -9.79764494 8.47893037 -15 7 C-15 6.01 -15 5.02 -15 4 C-12.625 3.875 -12.625 3.875 -10 4 C-9.34 4.66 -8.68 5.32 -8 6 C-5.42938689 6.64767793 -5.42938689 6.64767793 -3 7 C-4.07401108 4.08482708 -4.77810176 2.22189824 -7 0 C-5 -1 -5 -1 0 0 Z " fill="#EDF9F2" transform="translate(106,58)"/>
<path d="M0 0 C1.65 0 3.3 0 5 0 C5 4.95 5 9.9 5 15 C7.97 15 10.94 15 14 15 C14 16.65 14 18.3 14 20 C9.38 20 4.76 20 0 20 C0 13.4 0 6.8 0 0 Z " fill="#162F1D" transform="translate(170,58)"/>
<path d="M0 0 C0 0.66 0 1.32 0 2 C0.66 2 1.32 2 2 2 C2.33 1.34 2.66 0.68 3 0 C3 3.96 3 7.92 3 12 C1.02 12.66 -0.96 13.32 -3 14 C-4.5 12.6875 -4.5 12.6875 -6 11 C-6 10.01 -6 9.02 -6 8 C-6.763125 7.9175 -7.52625 7.835 -8.3125 7.75 C-11.57620042 6.83919988 -12.13095126 5.71861635 -14 3 C-14.99 2.67 -15.98 2.34 -17 2 C-14.1981185 0.59905925 -11.61780283 0.65478051 -8.5 0.4375 C-6.75203125 0.31181641 -6.75203125 0.31181641 -4.96875 0.18359375 C-3.31452998 0.0812933 -1.65738024 0 0 0 Z " fill="#092F0E" transform="translate(44,76)"/>
<path d="M0 0 C0.33 0 0.66 0 1 0 C1 6.6 1 13.2 1 20 C2.65 20 4.3 20 6 20 C6 20.33 6 20.66 6 21 C4.02 21 2.04 21 0 21 C0.33 21.99 0.66 22.98 1 24 C0.34 24 -0.32 24 -1 24 C-1 23.01 -1 22.02 -1 21 C-6.61 21 -12.22 21 -18 21 C-18 20.67 -18 20.34 -18 20 C-12.72 20 -7.44 20 -2 20 C-2 18.68 -2 17.36 -2 16 C-5.63 16 -9.26 16 -13 16 C-13 14.68 -13 13.36 -13 12 C-9.7 12 -6.4 12 -3 12 C-3 10.68 -3 9.36 -3 8 C-5.97 8 -8.94 8 -12 8 C-12 7.67 -12 7.34 -12 7 C-6.06 6.505 -6.06 6.505 0 6 C0 4.02 0 2.04 0 0 Z " fill="#C0D2C5" transform="translate(124,58)"/>
<path d="M0 0 C5.61 0 11.22 0 17 0 C17 0.33 17 0.66 17 1 C12.38 1.33 7.76 1.66 3 2 C3 2.99 3 3.98 3 5 C2.68578929 7.00309329 2.3548954 9.00371336 2 11 C2.54785156 10.855625 3.09570312 10.71125 3.66015625 10.5625 C11.5055418 8.72553168 18.98570553 8.80765693 27 9 C27 9.99 27 10.98 27 12 C25.85402344 12.04898438 24.70804688 12.09796875 23.52734375 12.1484375 C21.99737465 12.22352801 20.46742782 12.29907306 18.9375 12.375 C17.80924805 12.42140625 17.80924805 12.42140625 16.65820312 12.46875 C11.81646999 12.7202686 7.57392333 13.34961529 3 15 C1.50256112 16.98567734 1.50256112 16.98567734 1 19 C0.67 19 0.34 19 0 19 C0 12.73 0 6.46 0 0 Z " fill="#89B958" transform="translate(20,58)"/>
<path d="M0 0 C0.99 0 1.98 0 3 0 C3 6.93 3 13.86 3 21 C5.64 21 8.28 21 11 21 C11 21.66 11 22.32 11 23 C4.14091612 24.88197086 -1.10319035 25.29893655 -8 23 C-7.505 21.515 -7.505 21.515 -7 20 C-4.69 20 -2.38 20 0 20 C0 13.4 0 6.8 0 0 Z " fill="#E5ECE4" transform="translate(148,58)"/>
<path d="M0 0 C4.95 0 9.9 0 15 0 C15 5.61 15 11.22 15 17 C20.94 17 26.88 17 33 17 C33 21.29 33 25.58 33 30 C32.01 30.33 31.02 30.66 30 31 C30 30.01 30 29.02 30 28 C30.66 28 31.32 28 32 28 C31.67 26.02 31.34 24.04 31 22 C30.34 22 29.68 22 29 22 C29 21.34 29 20.68 29 20 C28.08476563 20.09539063 27.16953125 20.19078125 26.2265625 20.2890625 C24.44378906 20.45535156 24.44378906 20.45535156 22.625 20.625 C21.44164063 20.74101563 20.25828125 20.85703125 19.0390625 20.9765625 C18.03617188 20.98429687 17.03328125 20.99203125 16 21 C14 19 14 19 13.77294922 17.12060547 C13.78865967 16.00516357 13.78865967 16.00516357 13.8046875 14.8671875 C13.81435547 13.65869141 13.81435547 13.65869141 13.82421875 12.42578125 C13.84097656 11.58402344 13.85773437 10.74226563 13.875 9.875 C13.88402344 9.02550781 13.89304687 8.17601562 13.90234375 7.30078125 C13.92594353 5.20040116 13.96181517 3.10016556 14 1 C10.7 1 7.4 1 4 1 C4 2.65 4 4.3 4 6 C0 1.125 0 1.125 0 0 Z " fill="#91BD6E" transform="translate(46,41)"/>
<path d="M0 0 C8.25 0 16.5 0 25 0 C25 0.66 25 1.32 25 2 C21.87070822 3.83069903 19.62356854 4.23931181 16.015625 4.1953125 C15.08105469 4.18886719 14.14648438 4.18242188 13.18359375 4.17578125 C12.21550781 4.15902344 11.24742188 4.14226562 10.25 4.125 C9.26644531 4.11597656 8.28289063 4.10695313 7.26953125 4.09765625 C4.84610593 4.07412785 2.42317778 4.04125368 0 4 C0 2.68 0 1.36 0 0 Z " fill="#D4EDC9" transform="translate(51,70)"/>
<path d="M0 0 C0.33 0 0.66 0 1 0 C1 7.92 1 15.84 1 24 C2.65 23.67 4.3 23.34 6 23 C6.03738281 22.30132812 6.07476562 21.60265625 6.11328125 20.8828125 C6.17902344 19.97273438 6.24476562 19.06265625 6.3125 18.125 C6.37050781 17.22007813 6.42851563 16.31515625 6.48828125 15.3828125 C7 13 7 13 10 11 C10.05380578 13.79192205 10.09357669 16.5828141 10.125 19.375 C10.15013672 20.56609375 10.15013672 20.56609375 10.17578125 21.78125 C10.19335473 23.85492015 10.10335168 25.92883241 10 28 C9.34 28.66 8.68 29.32 8 30 C5.27148177 29.81809878 4.03082306 29.02468415 1.89160156 27.31152344 C-0.50709726 24.38033081 -0.46708928 22.88737486 -0.390625 19.140625 C-0.37773438 18.02558594 -0.36484375 16.91054687 -0.3515625 15.76171875 C-0.31804688 14.60285156 -0.28453125 13.44398437 -0.25 12.25 C-0.23195312 11.07566406 -0.21390625 9.90132812 -0.1953125 8.69140625 C-0.1481912 5.7934466 -0.08241305 2.89713582 0 0 Z " fill="#334B38" transform="translate(51,74)"/>
<path d="M0 0 C2.31 0 4.62 0 7 0 C7 2.31 7 4.62 7 7 C6.01 7.33 5.02 7.66 4 8 C4 9.65 4 11.3 4 13 C3.34 13 2.68 13 2 13 C2 13.99 2 14.98 2 16 C2.66 16.33 3.32 16.66 4 17 C3.01 17 2.02 17 1 17 C1 17.66 1 18.32 1 19 C1.99 18.67 2.98 18.34 4 18 C4 18.66 4 19.32 4 20 C2.68 20 1.36 20 0 20 C0 13.4 0 6.8 0 0 Z " fill="#122C19" transform="translate(125,58)"/>
<path d="M0 0 C0.33 0.66 0.66 1.32 1 2 C4.3 2 7.6 2 11 2 C11 3.32 11 4.64 11 6 C7.7 6 4.4 6 1 6 C1.33 6.99 1.66 7.98 2 9 C5.3 9.33 8.6 9.66 12 10 C12 11.32 12 12.64 12 14 C10.02 14 8.04 14 6 14 C5.67 13.34 5.34 12.68 5 12 C3.10466658 11.53476937 3.10466658 11.53476937 0.9375 11.375 C-0.361875 11.25125 -1.66125 11.1275 -3 11 C-3 9.68 -3 8.36 -3 7 C-2.34 7 -1.68 7 -1 7 C-0.67 4.69 -0.34 2.38 0 0 Z " fill="#0A2611" transform="translate(155,64)"/>
<path d="M0 0 C3.3 0 6.6 0 10 0 C10 4.95 10 9.9 10 15 C9.34 14.67 8.68 14.34 8 14 C8 10.7 8 7.4 8 4 C6.68 4.33 5.36 4.66 4 5 C4.165 5.94875 4.33 6.8975 4.5 7.875 C5.18541792 12.5763877 5.08583441 17.26003286 5 22 C4.67 22 4.34 22 4 22 C3.87882812 20.85660156 3.75765625 19.71320312 3.6328125 18.53515625 C3.46402679 17.04421583 3.29472953 15.55333327 3.125 14.0625 C3.04636719 13.30775391 2.96773437 12.55300781 2.88671875 11.77539062 C2.66116192 9.84080701 2.33741026 7.91823981 2 6 C1.34 5.67 0.68 5.34 0 5 C0 3.35 0 1.7 0 0 Z " fill="#7DB74D" transform="translate(50,42)"/>
<path d="M0 0 C0.33 0 0.66 0 1 0 C1 1.98 1 3.96 1 6 C1.99 6 2.98 6 4 6 C4.02187378 6.83192871 4.02187378 6.83192871 4.04418945 7.68066406 C4.11886897 10.20446242 4.21546025 12.72696654 4.3125 15.25 C4.33505859 16.12269531 4.35761719 16.99539062 4.38085938 17.89453125 C4.55443721 24.0532778 4.55443721 24.0532778 8 29 C4.09652718 27.46649282 2.15806461 25.59677434 0 22 C-0.49205532 18.21723126 -0.37663489 14.49385245 -0.25 10.6875 C-0.23195312 9.66076172 -0.21390625 8.63402344 -0.1953125 7.57617188 C-0.14831063 5.04982115 -0.08262272 2.52539531 0 0 Z " fill="#E4EFE5" transform="translate(47,74)"/>
<path d="M0 0 C5.28 0 10.56 0 16 0 C16 1.65 16 3.3 16 5 C12.7 5 9.4 5 6 5 C5.67 5.99 5.34 6.98 5 8 C5.33 6.35 5.66 4.7 6 3 C5.34 3 4.68 3 4 3 C4 2.34 4 1.68 4 1 C3.01 1 2.02 1 1 1 C1 7.27 1 13.54 1 20 C0.67 20 0.34 20 0 20 C0 13.4 0 6.8 0 0 Z " fill="#304636" transform="translate(106,58)"/>
<path d="M0 0 C0.33 0 0.66 0 1 0 C1 6.6 1 13.2 1 20 C0.01 20 -0.98 20 -2 20 C-2 18.68 -2 17.36 -2 16 C-5.3 16 -8.6 16 -12 16 C-12.33 14.68 -12.66 13.36 -13 12 C-11.37509046 11.97301811 -9.75005367 11.95361243 -8.125 11.9375 C-7.22007812 11.92589844 -6.31515625 11.91429688 -5.3828125 11.90234375 C-3 12 -3 12 -1 13 C-0.67 8.71 -0.34 4.42 0 0 Z " fill="#B0C3B5" transform="translate(169,58)"/>
<path d="M0 0 C0.33 0 0.66 0 1 0 C1.33 4.95 1.66 9.9 2 15 C3.32 13.68 4.64 12.36 6 11 C8.25 10.25 8.25 10.25 10 10 C10 10.33 10 10.66 10 11 C15.94 11.33 21.88 11.66 28 12 C28 12.33 28 12.66 28 13 C27.39003174 13.0093457 26.78006348 13.01869141 26.15161133 13.02832031 C23.37110513 13.08221326 20.59224738 13.16582069 17.8125 13.25 C16.85279297 13.26417969 15.89308594 13.27835938 14.90429688 13.29296875 C10.50754203 13.4451056 7.69681519 13.59294955 3.84375 15.84375 C1.69161279 17.94291347 1.69161279 17.94291347 1.6875 21.25 C1.790625 22.1575 1.89375 23.065 2 24 C1.34 24 0.68 24 0 24 C-1.21521251 15.88611956 -0.76299944 8.14648632 0 0 Z " fill="#D0E3C5" transform="translate(19,61)"/>
<path d="M0 0 C1.32 0 2.64 0 4 0 C4 0.66 4 1.32 4 2 C4.9075 1.67 5.815 1.34 6.75 1 C11.67560597 -0.51557107 16.86745236 0 22 0 C22 1.32 22 2.64 22 4 C14.74 4 7.48 4 0 4 C0 2.68 0 1.36 0 0 Z " fill="#727D79" transform="translate(162,81)"/>
<path d="M0 0 C2.40050896 0.28649836 4.7447716 0.33572813 7.16015625 0.2578125 C7.49015625 1.2478125 7.82015625 2.2378125 8.16015625 3.2578125 C4.07011766 4.40763852 0.12838574 4.36875506 -4.08984375 4.3203125 C-4.83492188 4.31580078 -5.58 4.31128906 -6.34765625 4.30664062 C-8.17842015 4.29490496 -10.00914248 4.276971 -11.83984375 4.2578125 C-11.83984375 2.9378125 -11.83984375 1.6178125 -11.83984375 0.2578125 C-7.69079004 -0.94675148 -4.20268112 -0.54726065 0 0 Z " fill="#7A857E" transform="translate(118.83984375,80.7421875)"/>
<path d="M0 0 C2 3 2 3 2.5 6.5625 C2.65847757 10.0571192 2.65847757 10.0571192 5 12 C3.02 12.99 3.02 12.99 1 14 C0.34 12.68 -0.32 11.36 -1 10 C-1.33 12.64 -1.66 15.28 -2 18 C-3.32 17.67 -4.64 17.34 -6 17 C-5.67 15.02 -5.34 13.04 -5 11 C-4.34 11 -3.68 11 -3 11 C-3.061875 9.824375 -3.061875 9.824375 -3.125 8.625 C-3 6 -3 6 -1 4 C-0.3574765 1.93125966 -0.3574765 1.93125966 0 0 Z " fill="#1D3724" transform="translate(132,60)"/>
<path d="M0 0 C0.33 0 0.66 0 1 0 C1 2.64 1 5.28 1 8 C-1.50100574 9.25050287 -3.00343052 9.02993449 -5.7890625 8.87890625 C-6.73007813 8.83056641 -7.67109375 8.78222656 -8.640625 8.73242188 C-9.62546875 8.67634766 -10.6103125 8.62027344 -11.625 8.5625 C-12.61757812 8.51029297 -13.61015625 8.45808594 -14.6328125 8.40429688 C-17.08884568 8.27441051 -19.5444936 8.13943836 -22 8 C-22 7.34 -22 6.68 -22 6 C-20.08574219 6.01740234 -20.08574219 6.01740234 -18.1328125 6.03515625 C-16.46354313 6.04453417 -14.79427217 6.05363437 -13.125 6.0625 C-12.28324219 6.07087891 -11.44148438 6.07925781 -10.57421875 6.08789062 C-9.76855469 6.09111328 -8.96289062 6.09433594 -8.1328125 6.09765625 C-7.38918457 6.10289307 -6.64555664 6.10812988 -5.87939453 6.11352539 C-3.90867432 6.11786636 -3.90867432 6.11786636 -2 5 C-1.27840576 3.35636866 -0.60648579 1.68949614 0 0 Z " fill="#84B859" transform="translate(77,61)"/>
<path d="M0 0 C2.99265772 0.03812303 4.52317825 0.16984305 7.25 1.5 C8.6875 3.25 8.6875 3.25 8.6875 7.25 C6.3125 7.375 6.3125 7.375 3.6875 7.25 C3.0275 6.59 2.3675 5.93 1.6875 5.25 C-0.30071313 4.85235737 -2.30194339 4.51224651 -4.3125 4.25 C-4.6425 3.26 -4.9725 2.27 -5.3125 1.25 C-3.74272426 -0.31977574 -2.17053613 0.04262919 0 0 Z " fill="#0C2916" transform="translate(94.3125,57.75)"/>
<path d="M0 0 C1.65 0 3.3 0 5 0 C5 0.66 5 1.32 5 2 C7.97 2 10.94 2 14 2 C14 2.33 14 2.66 14 3 C10.7 3 7.4 3 4 3 C4 4.32 4 5.64 4 7 C6.97 7 9.94 7 13 7 C13 7.33 13 7.66 13 8 C10.36 8 7.72 8 5 8 C4.67 8.66 4.34 9.32 4 10 C4 9.34 4 8.68 4 8 C3.34 8 2.68 8 2 8 C1.67 8.99 1.34 9.98 1 11 C0.67 11 0.34 11 0 11 C0 7.37 0 3.74 0 0 Z " fill="#092512" transform="translate(107,59)"/>
<path d="M0 0 C2.95064148 -0.2208564 5.68368231 -0.28060989 8.625 -0.1875 C9.42679688 -0.17396484 10.22859375 -0.16042969 11.0546875 -0.14648438 C13.03674378 -0.11109051 15.01845551 -0.05728234 17 0 C17 0.99 17 1.98 17 3 C10.73 3 4.46 3 -2 3 C-1.34 2.01 -0.68 1.02 0 0 Z " fill="#E8F8D8" transform="translate(30,70)"/>
<path d="M0 0 C0.99 0 1.98 0 3 0 C3.08089542 2.77141717 3.14044062 5.54047819 3.1875 8.3125 C3.21263672 9.09818359 3.23777344 9.88386719 3.26367188 10.69335938 C3.27333984 11.45068359 3.28300781 12.20800781 3.29296875 12.98828125 C3.3086792 13.68477783 3.32438965 14.38127441 3.34057617 15.09887695 C3 17 3 17 0 20 C0 13.4 0 6.8 0 0 Z " fill="#EEFCEE" transform="translate(148,58)"/>
<path d="M0 0 C4.95 0 9.9 0 15 0 C15 1.32 15 2.64 15 4 C10.05 4 5.1 4 0 4 C0 2.68 0 1.36 0 0 Z " fill="#818B87" transform="translate(84,81)"/>
<path d="M0 0 C5.28 0 10.56 0 16 0 C14.68 0.33 13.36 0.66 12 1 C11.690625 1.825 11.38125 2.65 11.0625 3.5 C10.711875 4.325 10.36125 5.15 10 6 C7.54115028 6.79912616 5.56909202 7 3 7 C3 5.68 3 4.36 3 3 C4.65 3 6.3 3 8 3 C8 2.34 8 1.68 8 1 C5.36 1 2.72 1 0 1 C0 0.67 0 0.34 0 0 Z " fill="#CBD9CF" transform="translate(151,78)"/>
<path d="M0 0 C0.75732422 0.00644531 1.51464844 0.01289062 2.29492188 0.01953125 C3.08060547 0.03628906 3.86628906 0.05304688 4.67578125 0.0703125 C5.47306641 0.07933594 6.27035156 0.08835937 7.09179688 0.09765625 C9.05742025 0.12119665 11.022889 0.15706703 12.98828125 0.1953125 C12.65828125 1.5153125 12.32828125 2.8353125 11.98828125 4.1953125 C11.32828125 4.1953125 10.66828125 4.1953125 9.98828125 4.1953125 C9.98828125 3.5353125 9.98828125 2.8753125 9.98828125 2.1953125 C8.99828125 2.6903125 8.99828125 2.6903125 7.98828125 3.1953125 C2.94452806 3.49883039 -2.10432249 3.5039515 -7.01171875 2.1953125 C-3.96490814 0.16410543 -3.41053551 -0.05128625 0 0 Z " fill="#0B2518" transform="translate(34.01171875,73.8046875)"/>
<path d="M0 0 C1.79244141 0.01740234 1.79244141 0.01740234 3.62109375 0.03515625 C5.41740234 0.04869141 5.41740234 0.04869141 7.25 0.0625 C8.17683594 0.07410156 9.10367188 0.08570313 10.05859375 0.09765625 C10.05859375 0.42765625 10.05859375 0.75765625 10.05859375 1.09765625 C6.42859375 1.42765625 2.79859375 1.75765625 -0.94140625 2.09765625 C-0.28140625 3.74765625 0.37859375 5.39765625 1.05859375 7.09765625 C1.19384766 9.77661133 1.19384766 9.77661133 1.03515625 12.6171875 C0.98359375 13.63876953 0.93203125 14.66035156 0.87890625 15.71289062 C0.81445312 16.76798828 0.75 17.82308594 0.68359375 18.91015625 C0.626875 19.98458984 0.57015625 21.05902344 0.51171875 22.16601562 C0.37067367 24.81061091 0.21930399 27.45419519 0.05859375 30.09765625 C-0.27140625 30.09765625 -0.60140625 30.09765625 -0.94140625 30.09765625 C-0.96122559 29.39680908 -0.98104492 28.69596191 -1.00146484 27.97387695 C-1.09696791 24.78560463 -1.20654496 21.59796478 -1.31640625 18.41015625 C-1.34734375 17.30736328 -1.37828125 16.20457031 -1.41015625 15.06835938 C-1.44882812 14.00166016 -1.4875 12.93496094 -1.52734375 11.8359375 C-1.55876465 10.85665283 -1.59018555 9.87736816 -1.62255859 8.8684082 C-1.95570194 5.97342824 -2.73941212 3.73993458 -3.94140625 1.09765625 C-2.94140625 0.09765625 -2.94140625 0.09765625 0 0 Z " fill="#D5FAB7" transform="translate(47.94140625,39.90234375)"/>
<path d="M0 0 C5.61 0 11.22 0 17 0 C17 0.33 17 0.66 17 1 C16.00097656 1.04898438 15.00195312 1.09796875 13.97265625 1.1484375 C12.68230469 1.22320312 11.39195313 1.29796875 10.0625 1.375 C8.77472656 1.44460937 7.48695312 1.51421875 6.16015625 1.5859375 C5.11730469 1.72257812 4.07445312 1.85921875 3 2 C1.83031047 4.33937907 1.86635779 5.77369368 1.875 8.375 C1.87242188 9.14585938 1.86984375 9.91671875 1.8671875 10.7109375 C1.99610212 12.9328189 2.38616283 14.86618508 3 17 C2.01 17.66 1.02 18.32 0 19 C0 12.73 0 6.46 0 0 Z " fill="#90B46E" transform="translate(20,58)"/>
<path d="M0 0 C0.33 1.32 0.66 2.64 1 4 C-2.96 4 -6.92 4 -11 4 C-10.34 6.31 -9.68 8.62 -9 11 C-9.99 10.67 -10.98 10.34 -12 10 C-12.125 3.25 -12.125 3.25 -11 1 C-8.49609375 0.5859375 -8.49609375 0.5859375 -5.4375 0.375 C-4.42558594 0.30023438 -3.41367188 0.22546875 -2.37109375 0.1484375 C-1.58863281 0.09945312 -0.80617188 0.05046875 0 0 Z " fill="#17321B" transform="translate(120,66)"/>
<path d="M0 0 C1.32 0 2.64 0 4 0 C4 4.29 4 8.58 4 13 C2.02 12.34 0.04 11.68 -2 11 C-1.85892253 9.54119891 -1.71197585 8.08296449 -1.5625 6.625 C-1.48128906 5.81289062 -1.40007813 5.00078125 -1.31640625 4.1640625 C-1 2 -1 2 0 0 Z " fill="#05270A" transform="translate(56,86)"/>
<path d="M0 0 C0.99 0 1.98 0 3 0 C4.12377697 3.30435084 3.89554742 5.0506862 2.5625 8.25 C2.27503906 8.95640625 1.98757812 9.6628125 1.69140625 10.390625 C1.46324219 10.92171875 1.23507813 11.4528125 1 12 C0.34 12 -0.32 12 -1 12 C-1.66 9.69 -2.32 7.38 -3 5 C-2.505 4.54625 -2.01 4.0925 -1.5 3.625 C0.22609337 2.12364481 0.22609337 2.12364481 0 0 Z " fill="#E3F0E2" transform="translate(136,57)"/>
<path d="M0 0 C0.66 0 1.32 0 2 0 C4.18588719 2.53698824 6.04353757 5.27796532 8 8 C3.38 8 -1.24 8 -6 8 C-6 7.67 -6 7.34 -6 7 C-4.35 6.67 -2.7 6.34 -1 6 C-1.99 5.34 -2.98 4.68 -4 4 C-2.35 3.67 -0.7 3.34 1 3 C0.67 2.01 0.34 1.02 0 0 Z " fill="#243826" transform="translate(46,96)"/>
<path d="M0 0 C0.33 0 0.66 0 1 0 C2.12862175 5.36095333 2.09688221 10.55306686 2 16 C1.01 16 0.02 16 -1 16 C-1.85330338 10.16524985 -2.48351814 5.55139349 0 0 Z " fill="#F7FBF9" transform="translate(49,64)"/>
<path d="M0 0 C1.258125 -0.020625 2.51625 -0.04125 3.8125 -0.0625 C4.52019531 -0.07410156 5.22789062 -0.08570312 5.95703125 -0.09765625 C8 0 8 0 11 1 C11 1.66 11 2.32 11 3 C8.11788698 3.96070434 6.30149956 4.10581883 3.3125 4.0625 C2.10013672 4.04896484 2.10013672 4.04896484 0.86328125 4.03515625 C-0.05904297 4.01775391 -0.05904297 4.01775391 -1 4 C-0.67 2.68 -0.34 1.36 0 0 Z " fill="#7C887E" transform="translate(132,81)"/>
<path d="M0 0 C4.95 0 9.9 0 15 0 C15 5.61 15 11.22 15 17 C14.67 17 14.34 17 14 17 C14 11.72 14 6.44 14 1 C10.7 1 7.4 1 4 1 C4 2.65 4 4.3 4 6 C0 1.125 0 1.125 0 0 Z " fill="#9EC17E" transform="translate(46,41)"/>
<path d="M0 0 C0 3.63 0 7.26 0 11 C-0.66 10.01 -1.32 9.02 -2 8 C-2.99 8 -3.98 8 -5 8 C-5 8.99 -5 9.98 -5 11 C-5.66 10.67 -6.32 10.34 -7 10 C-6.67 9.01 -6.34 8.02 -6 7 C-5.01 7 -4.02 7 -3 7 C-3.75150023 3.72226496 -3.75150023 3.72226496 -7 2 C-2.25 0 -2.25 0 0 0 Z " fill="#324A33" transform="translate(79,71)"/>
<path d="M0 0 C1.32 0 2.64 0 4 0 C3.8125 2.375 3.8125 2.375 3 5 C0.6875 6.4375 0.6875 6.4375 -2 7 C-4.3125 6.125 -4.3125 6.125 -6 5 C-5.67 4.34 -5.34 3.68 -5 3 C-3.3176559 2.47426747 -1.77322566 2 0 2 C0 1.34 0 0.68 0 0 Z " fill="#CAD2CE" transform="translate(126,81)"/>
<path d="M0 0 C1.75 0.9375 1.75 0.9375 3.75 2.9375 C1.11 3.2675 -1.53 3.5975 -4.25 3.9375 C-4.25 5.5875 -4.25 7.2375 -4.25 8.9375 C-5.57 9.2675 -6.89 9.5975 -8.25 9.9375 C-8.625 7.75 -8.625 7.75 -8.25 4.9375 C-3.43588235 -0.09544118 -3.43588235 -0.09544118 0 0 Z " fill="#254227" transform="translate(28.25,74.0625)"/>
<path d="M0 0 C1.52634923 3.05269846 0.83794444 5.75845689 0.5625 9.125 C0.40974609 11.04699219 0.40974609 11.04699219 0.25390625 13.0078125 C0.17011719 13.99523437 0.08632813 14.98265625 0 16 C-0.99 16 -1.98 16 -3 16 C-2.88658509 13.51979503 -2.75985314 11.04155031 -2.625 8.5625 C-2.5940625 7.85544922 -2.563125 7.14839844 -2.53125 6.41992188 C-2.42719371 4.60760812 -2.22080108 2.80182012 -2 1 C-1.34 0.67 -0.68 0.34 0 0 Z " fill="#F3FCE9" transform="translate(19,59)"/>
<path d="M0 0 C5.94 1.485 5.94 1.485 12 3 C12 3.99 12 4.98 12 6 C7.36574638 6.32332002 4.71316711 5.8644432 1 3 C0.67 2.01 0.34 1.02 0 0 Z " fill="#D5EBD7" transform="translate(86,68)"/>
<path d="M0 0 C0.33 0 0.66 0 1 0 C1.06058594 0.84304687 1.12117188 1.68609375 1.18359375 2.5546875 C1.26738281 3.65039062 1.35117187 4.74609375 1.4375 5.875 C1.51871094 6.96554688 1.59992187 8.05609375 1.68359375 9.1796875 C1.83001703 11.94728971 1.83001703 11.94728971 3 14 C5.8159849 14.46898963 5.8159849 14.46898963 9.0625 14.625 C10.71958984 14.73714844 10.71958984 14.73714844 12.41015625 14.8515625 C13.26480469 14.90054688 14.11945313 14.94953125 15 15 C15 15.33 15 15.66 15 16 C10.05 16 5.1 16 0 16 C0 10.72 0 5.44 0 0 Z " fill="#E5F8CE" transform="translate(61,42)"/>
<path d="M0 0 C0 1.32 0 2.64 0 4 C-3.3 4 -6.6 4 -10 4 C-10 3.01 -10 2.02 -10 1 C-2.25 0 -2.25 0 0 0 Z " fill="#162819" transform="translate(122,74)"/>
<path d="M0 0 C1.65 0 3.3 0 5 0 C5.66 1.32 6.32 2.64 7 4 C6.01 4 5.02 4 4 4 C4.33 4.99 4.66 5.98 5 7 C3.0625 6.3125 3.0625 6.3125 1 5 C0.25 2.375 0.25 2.375 0 0 Z " fill="#2C4231" transform="translate(85,71)"/>
<path d="M0 0 C2.31 0 4.62 0 7 0 C7 1.32 7 2.64 7 4 C4.03 4 1.06 4 -2 4 C-1.34 2.68 -0.68 1.36 0 0 Z " fill="#182C1C" transform="translate(159,66)"/>
<path d="M0 0 C3.63 0 7.26 0 11 0 C10.67 0.99 10.34 1.98 10 3 C6.7 3 3.4 3 0 3 C0 2.01 0 1.02 0 0 Z " fill="#CEE1D3" transform="translate(156,63)"/>
<path d="M0 0 C0.33 0 0.66 0 1 0 C1.06058594 1.03640625 1.12117188 2.0728125 1.18359375 3.140625 C1.26803371 4.51042873 1.35267997 5.88021975 1.4375 7.25 C1.47681641 7.93191406 1.51613281 8.61382812 1.55664062 9.31640625 C1.76666472 12.64448041 2.01934002 15.80255402 3 19 C1.35 19 -0.3 19 -2 19 C-2 18.34 -2 17.68 -2 17 C-1.34 17 -0.68 17 0 17 C0 11.39 0 5.78 0 0 Z " fill="#83C051" transform="translate(44,48)"/>
<path d="M0 0 C1.32 0.66 2.64 1.32 4 2 C3.67 3.65 3.34 5.3 3 7 C3.99 7.33 4.98 7.66 6 8 C4.35 8.33 2.7 8.66 1 9 C1 8.01 1 7.02 1 6 C0.01 6 -0.98 6 -2 6 C-2.33 5.01 -2.66 4.02 -3 3 C-2.01 2.01 -1.02 1.02 0 0 Z " fill="#344B39" transform="translate(88,58)"/>
<path d="M0 0 C1.32 0.66 2.64 1.32 4 2 C4 3.32 4 4.64 4 6 C1.625 6.1875 1.625 6.1875 -1 6 C-1.66 5.01 -2.32 4.02 -3 3 C-2.34 3 -1.68 3 -1 3 C-0.67 2.01 -0.34 1.02 0 0 Z " fill="#2C4332" transform="translate(99,59)"/>
<path d="M0 0 C0.33 0 0.66 0 1 0 C1 3.96 1 7.92 1 12 C0.01 11.67 -0.98 11.34 -2 11 C-1.85957123 9.35369672 -1.71250671 7.70795821 -1.5625 6.0625 C-1.48128906 5.14597656 -1.40007812 4.22945313 -1.31640625 3.28515625 C-1 1 -1 1 0 0 Z " fill="#F0FDF3" transform="translate(168,60)"/>
<path d="M0 0 C4.29 0 8.58 0 13 0 C10 3 10 3 7.30078125 3.07421875 C5.82158203 2.88279297 5.82158203 2.88279297 4.3125 2.6875 C2.82169922 2.50767578 2.82169922 2.50767578 1.30078125 2.32421875 C0.54152344 2.21722656 -0.21773438 2.11023438 -1 2 C-0.67 1.34 -0.34 0.68 0 0 Z " fill="#F1FDF5" transform="translate(87,79)"/>
<path d="M0 0 C0.66 0.33 1.32 0.66 2 1 C1.95875 1.78375 1.9175 2.5675 1.875 3.375 C1.71271266 6.16116119 1.71271266 6.16116119 4 8 C2.02 8.99 2.02 8.99 0 10 C-1.36952673 7.26094655 -1.12621361 5.02912668 -1 2 C-0.67 1.34 -0.34 0.68 0 0 Z " fill="#103016" transform="translate(133,64)"/>
<path d="M0 0 C1.65 0 3.3 0 5 0 C5 0.99 5 1.98 5 3 C-0.61 3 -6.22 3 -12 3 C-12 2.67 -12 2.34 -12 2 C-8.04 2 -4.08 2 0 2 C0 1.34 0 0.68 0 0 Z " fill="#8DB562" transform="translate(42,67)"/>
<path d="M0 0 C0.99 0.33 1.98 0.66 3 1 C3 1.66 3 2.32 3 3 C3.66 3 4.32 3 5 3 C5.33 4.32 5.66 5.64 6 7 C5.01 6.67 4.02 6.34 3 6 C0.85744207 6.38932856 0.85744207 6.38932856 -1 7 C-0.67 4.69 -0.34 2.38 0 0 Z " fill="#FBFCF7" transform="translate(81,64)"/>
<path d="M0 0 C2.25 -0.3125 2.25 -0.3125 5 0 C7.3125 2.5 7.3125 2.5 9 5 C5.87709365 4.51421457 3.00419641 4.0013988 0 3 C0 2.01 0 1.02 0 0 Z " fill="#CAE4D2" transform="translate(91,62)"/>
<path d="M0 0 C0.66 0.99 1.32 1.98 2 3 C0.125 4.0625 0.125 4.0625 -2 5 C-2.66 4.67 -3.32 4.34 -4 4 C-6.09821215 4.39938767 -6.09821215 4.39938767 -8 5 C-7.67 4.01 -7.34 3.02 -7 2 C-3.4375 0.8125 -3.4375 0.8125 0 0 Z " fill="#F0F7F5" transform="translate(161,83)"/>
<path d="M0 0 C0 1.65 0 3.3 0 5 C-0.66 5 -1.32 5 -2 5 C-2.33 5.66 -2.66 6.32 -3 7 C-3.433125 5.824375 -3.433125 5.824375 -3.875 4.625 C-4.84912254 1.90328368 -4.84912254 1.90328368 -7 0 C-4.3333581 -1.33332095 -2.83319697 -0.67102033 0 0 Z " fill="#EBF0E6" transform="translate(106,58)"/>
<path d="M0 0 C1.98 0 3.96 0 6 0 C6 0.99 6 1.98 6 3 C4.02 3.66 2.04 4.32 0 5 C0 3.35 0 1.7 0 0 Z " fill="#83BE4C" transform="translate(50,42)"/>
<path d="M0 0 C2.64 0 5.28 0 8 0 C8.33 0.99 8.66 1.98 9 3 C5.58900832 3 2.36911686 2.50854594 -1 2 C-0.67 1.34 -0.34 0.68 0 0 Z " fill="#043404" transform="translate(32,78)"/>
<path d="M0 0 C0.66 0.33 1.32 0.66 2 1 C2 1.99 2 2.98 2 4 C-1.4019487 6.09350689 -4.05272412 6.17942163 -8 6 C-5 4 -5 4 -3 4 C-3 3.34 -3 2.68 -3 2 C-2.01 2 -1.02 2 0 2 C0 1.34 0 0.68 0 0 Z " fill="#314731" transform="translate(100,73)"/>
<path d="M0 0 C2.0625 1.625 2.0625 1.625 4 4 C3.875 7.1875 3.875 7.1875 3 10 C2.01 10.495 2.01 10.495 1 11 C-0.28317892 7.15046324 -0.06643637 4.05261865 0 0 Z " fill="#102917" transform="translate(125,59)"/>
<path d="M0 0 C1.79244141 0.01740234 1.79244141 0.01740234 3.62109375 0.03515625 C5.41740234 0.04869141 5.41740234 0.04869141 7.25 0.0625 C8.17683594 0.07410156 9.10367188 0.08570313 10.05859375 0.09765625 C10.05859375 0.42765625 10.05859375 0.75765625 10.05859375 1.09765625 C6.42859375 1.42765625 2.79859375 1.75765625 -0.94140625 2.09765625 C-0.61140625 2.75765625 -0.28140625 3.41765625 0.05859375 4.09765625 C-0.60140625 4.75765625 -1.26140625 5.41765625 -1.94140625 6.09765625 C-2.60140625 4.44765625 -3.26140625 2.79765625 -3.94140625 1.09765625 C-2.94140625 0.09765625 -2.94140625 0.09765625 0 0 Z " fill="#CCEBB2" transform="translate(47.94140625,39.90234375)"/>
<path d="M0 0 C0.94875 0.350625 1.8975 0.70125 2.875 1.0625 C2.545 1.7225 2.215 2.3825 1.875 3.0625 C-0.435 3.0625 -2.745 3.0625 -5.125 3.0625 C-5.125 2.0725 -5.125 1.0825 -5.125 0.0625 C-3.125 -0.9375 -3.125 -0.9375 0 0 Z " fill="#EEFDE2" transform="translate(43.125,37.9375)"/>
<path d="M0 0 C2.97 0.33 5.94 0.66 9 1 C9.33 1.99 9.66 2.98 10 4 C7.36 3.67 4.72 3.34 2 3 C2 2.34 2 1.68 2 1 C1.34 0.67 0.68 0.34 0 0 Z " fill="#6F7A76" transform="translate(143,81)"/>
<path d="M0 0 C1.98 0 3.96 0 6 0 C6 1.32 6 2.64 6 4 C4.02 4 2.04 4 0 4 C0 2.68 0 1.36 0 0 Z " fill="#8B978D" transform="translate(100,81)"/>
<path d="M0 0 C2.97 0 5.94 0 9 0 C9 0.99 9 1.98 9 3 C6.03 3 3.06 3 0 3 C0 2.01 0 1.02 0 0 Z " fill="#0D2212" transform="translate(157,59)"/>
<path d="M0 0 C0.66 0.33 1.32 0.66 2 1 C-0.75 4.875 -0.75 4.875 -3 6 C-3.65213292 8.02463255 -3.65213292 8.02463255 -4 10 C-5 7 -5 7 -5 4 C-2.5 1.8125 -2.5 1.8125 0 0 Z " fill="#D3DED6" transform="translate(103,75)"/>
<path d="M0 0 C0.33 0.66 0.66 1.32 1 2 C-1.31 2.33 -3.62 2.66 -6 3 C-6.33 2.01 -6.66 1.02 -7 0 C-3.88407501 -1.03864166 -2.9737344 -1.09036928 0 0 Z " fill="#19321C" transform="translate(96,75)"/>
<path d="M0 0 C0.33 0.99 0.66 1.98 1 3 C-2.05263664 3.98120464 -3.94736336 3.98120464 -7 3 C-7 2.34 -7 1.68 -7 1 C-4.53721199 -0.231394 -2.7204945 -0.07159196 0 0 Z " fill="#848E8B" transform="translate(126,81)"/>
<path d="M0 0 C1.98 0 3.96 0 6 0 C6.33 0.99 6.66 1.98 7 3 C6.34 3.66 5.68 4.32 5 5 C4.67 4.01 4.34 3.02 4 2 C3.01 2 2.02 2 1 2 C0.67 2.66 0.34 3.32 0 4 C0 2.68 0 1.36 0 0 Z " fill="#8FBB6C" transform="translate(38,41)"/>
<path d="M0 0 C1.32 0 2.64 0 4 0 C4.66 1.32 5.32 2.64 6 4 C4.02 4 2.04 4 0 4 C0 2.68 0 1.36 0 0 Z " fill="#848F8B" transform="translate(162,81)"/>
<path d="M0 0 C2.64 0 5.28 0 8 0 C8 0.66 8 1.32 8 2 C5.69 2.66 3.38 3.32 1 4 C0.67 2.68 0.34 1.36 0 0 Z " fill="#F3FDF6" transform="translate(151,79)"/>
<path d="M0 0 C1.125 1.625 1.125 1.625 2 4 C1.125 7.25 1.125 7.25 0 10 C-0.99 9.67 -1.98 9.34 -3 9 C-3 6 -3 6 -1 4 C-0.3574765 1.93125966 -0.3574765 1.93125966 0 0 Z " fill="#28472E" transform="translate(132,60)"/>
<path d="M0 0 C1.65 0 3.3 0 5 0 C5 1.98 5 3.96 5 6 C4.01 6.495 4.01 6.495 3 7 C3 5.68 3 4.36 3 3 C2.01 2.67 1.02 2.34 0 2 C0 1.34 0 0.68 0 0 Z " fill="#082812" transform="translate(127,59)"/>
<path d="M0 0 C2.31 0.66 4.62 1.32 7 2 C5.68 2.33 4.36 2.66 3 3 C2.67 4.32 2.34 5.64 2 7 C1.34 4.69 0.68 2.38 0 0 Z " fill="#F3FDF8" transform="translate(104,78)"/>
<path d="M0 0 C2.875 -0.1875 2.875 -0.1875 6 0 C6.66 0.99 7.32 1.98 8 3 C7.34 3.66 6.68 4.32 6 5 C5.01 4.34 4.02 3.68 3 3 C3 2.34 3 1.68 3 1 C2.01 0.67 1.02 0.34 0 0 Z " fill="#E3EDE6" transform="translate(97,65)"/>
<path d="M0 0 C2.97 0.495 2.97 0.495 6 1 C6 1.99 6 2.98 6 4 C4.02 4 2.04 4 0 4 C0 2.68 0 1.36 0 0 Z " fill="#6B7572" transform="translate(154,81)"/>
<path d="M0 0 C0.33 0 0.66 0 1 0 C1.33 2.31 1.66 4.62 2 7 C1.01 7.33 0.02 7.66 -1 8 C-1.66 7.34 -2.32 6.68 -3 6 C-2.01 4.02 -1.02 2.04 0 0 Z " fill="#DEE5DD" transform="translate(150,75)"/>
<path d="M0 0 C-0.33 1.32 -0.66 2.64 -1 4 C-1.66 4 -2.32 4 -3 4 C-3 3.34 -3 2.68 -3 2 C-3.99 2.33 -4.98 2.66 -6 3 C-8.1875 2.0625 -8.1875 2.0625 -10 1 C-2.25 0 -2.25 0 0 0 Z " fill="#172C28" transform="translate(47,74)"/>
<path d="M0 0 C2.31 0.33 4.62 0.66 7 1 C7 1.66 7 2.32 7 3 C4.69 3 2.38 3 0 3 C0 2.01 0 1.02 0 0 Z " fill="#112710" transform="translate(95,67)"/>
</svg>
